<?xml version="1.0" encoding="UTF-8"?><svg id="HR" xmlns="http://www.w3.org/2000/svg" viewBox="0 0 60 60"><defs><style>.cls-1{fill:#fff;}.cls-2{fill:#ac1f30;}</style></defs><circle class="cls-2" cx="30" cy="30" r="29"/><g><path class="cls-1" d="m9.15,34.14v4.01h-3.25v-14.38h6.19c3.28,0,5.12,2.29,5.12,5.08,0,2.94-2.04,5.29-5.42,5.29h-2.64Zm0-7.39v4.41h2.56c1.39,0,2.23-.92,2.23-2.23s-.82-2.18-2.33-2.18h-2.46Z"/><path class="cls-1" d="m21.87,38.15h-3.25v-14.38h6.13c3.07,0,4.96,1.97,4.96,4.79,0,2.25-1.49,4.11-3.93,4.6l4.58,5h-4.24l-4.24-4.89v4.89Zm0-11.4v3.84h2.29c1.41,0,2.27-.8,2.27-1.91s-.71-1.93-2.16-1.93h-2.39Z"/><path class="cls-1" d="m31.53,23.77h10.52v2.94h-7.26v2.71h6.72v2.86h-6.72v2.94h7.29v2.94h-10.54v-14.38Z"/><path class="cls-1" d="m42.94,33.66h3.25c.06,1.09.69,2.18,2.65,2.18,1.64,0,2.48-.65,2.48-1.55,0-1.11-1.41-1.41-3.04-1.76-2.29-.55-5.08-1.22-5.08-4.64,0-2.52,1.95-4.39,5.4-4.39s5.44,1.91,5.65,4.72h-3.28c-.06-1.15-.69-2.08-2.46-2.08-1.3,0-2.16.52-2.16,1.47,0,1.22,1.43,1.55,3.07,1.93,2.35.52,5.17,1.11,5.17,4.35,0,2.62-2.06,4.54-5.82,4.54s-5.63-1.81-5.82-4.77Z"/></g></svg>