<?xml version="1.0" encoding="UTF-8"?><svg id="HR" xmlns="http://www.w3.org/2000/svg" viewBox="0 0 60 60"><defs><style>.cls-1{fill:#fff;}.cls-2{fill:#7c88b1;}</style></defs><circle class="cls-2" cx="30" cy="30" r="29"/><path class="cls-1" d="M22.25,20.03h8.28c4.49,0,6.49,2.5,6.49,5.46,0,1.79-.85,3.23-2.53,4.08,2.53,.76,3.88,2.47,3.88,4.82,0,3.29-2.32,5.76-7.08,5.76h-9.05V20.03Zm4.55,3.91v4.11h3.41c1.56,0,2.35-.88,2.35-2.09s-.79-2.03-2.35-2.03h-3.41Zm0,7.96v4.35h4.26c1.76,0,2.76-.88,2.76-2.12,0-1.32-1-2.23-2.79-2.23h-4.23Z"/></svg>