<?xml version="1.0" encoding="UTF-8"?><svg id="Layer_1" xmlns="http://www.w3.org/2000/svg" viewBox="0 0 300 55"><defs><style>.cls-1{fill:#fff;}.cls-2{fill:#c12126;stroke:#c12126;stroke-miterlimit:3.86;}.cls-3{fill-rule:evenodd;}</style></defs><polygon class="cls-2" points="69.57 40.44 294.26 40.44 294.26 54 69.57 54 69.57 40.44 69.57 40.44"/><polygon class="cls-1" points="139 53.85 132.29 47.14 139 40.43 145.71 47.14 139 53.85 139 53.85"/><path class="cls-3" d="m71.67,24.51v5.43c0,1.27-.38,2.36-1.18,2.78l-1.46.75v1.08c2.22-.05,4.29-.14,6.41-.14s4.19.09,6.08.14c4.19.09,7.21-.47,10.09-1.65,3.48-1.44,6.49-4.48,8.31-8.39h-4.43c-1.17,2.92-3.23,5.19-6.29,6.6-2.59,1.23-5.33,1.37-7.68,1.37-1.6,0-4.05-.05-5.37-.38v-7.6h-4.48Zm32.57,0l-2.72,6.18c-.52,1.23-1.41,2.22-2.54,2.31l-1.74.14v1.41c1.79-.05,3.58-.14,5.42-.14,1.37,0,3.16.09,5.42.14v-1.41l-1.74-.14c-1.46-.14-2.26-.33-2.26-1.32,0-.75,1.23-3.91,1.65-4.9l.95-2.27h-2.43Zm16.73,0l1.81,4.53c.47,1.13.99,2.36.99,3.02,0,.57-.94.9-1.93.94l-2.22.14v1.41c2.54-.05,4.62-.14,6.27-.14,2.12,0,4.19.09,6.27.14v-1.41l-1.6-.14c-.85-.09-1.37-.71-1.88-1.6-.57-.99-1.08-2.26-1.51-3.2l-1.57-3.69h-4.63Zm12.67,0l1.04,2.55c.94,2.31,1.98,5,2.73,7.78h2.36c.85-2.88,1.89-5.56,3.02-8.25l.86-2.08h-2.2l-1.63,4.2-1.63-4.2h-4.54Z"/><path class="cls-3" d="m76.14,24.51V4.06c1.32-.33,3.77-.38,5.37-.38,8.48,0,15.18,2.12,15.18,13.81,0,2.61-.39,4.97-1.21,7.01h4.43c1.15-2.48,1.82-5.33,1.82-8.33,0-9.14-7.21-14.61-16.87-14.37-2.07.05-5.09.14-8.2.14s-6.13-.09-9.29-.14v1.41l1.89.14c1.13.09,1.7.24,1.98.71.33.52.42,1.74.42,3.53v16.91h4.48Zm30.51,0l.37-.89h13.57l.35.89h4.63L115.75,1.42h-1.51c-1.27,3.39-2.88,6.88-4.34,10.18l-5.67,12.9h2.43Zm31.51,0l-7.65-19.69c-.42-1.13.52-1.41,1.41-1.46l2.64-.14v-1.41c-2.07.05-4.15.14-6.27.14s-4.19-.09-6.27-.14v1.41l1.7.14c.8.05,1.46.42,2.07,1.93l7.82,19.22h4.54Zm5.46,0l7.34-17.76c.94-2.26,1.56-3.3,2.55-3.39l1.41-.14v-1.41c-1.7.05-3.35.14-5.09.14s-3.39-.09-5.09-.14v1.41l2.45.14c1.23.09,2.22.52,1.23,3.06l-7,18.09h2.2Zm-35.8-2.77l5.99-14.05,5.94,14.05h-11.92Z"/><path class="cls-3" d="m265.96,28.76c0,1.79-.09,3.02-.42,3.54-.28.47-.85.61-1.98.71l-2.07.14v1.41c1.89-.05,3.77-.14,5.47-.14,1.89,0,3.58.09,5.66.14v-1.41l-2.07-.14c-1.13-.09-1.7-.24-1.98-.71-.33-.52-.42-1.74-.42-3.54V7.03h.09l22.2,27.57,4.24.75c-.05-.57-.14-1.18-.14-1.74V7.6c0-1.79.09-3.02.42-3.53.28-.47.85-.61,1.98-.71l2.07-.14v-1.41c-2.07.05-3.77.14-5.66.14-1.7,0-3.58-.09-5.47-.14v1.41l2.07.14c1.13.09,1.7.24,1.98.71.33.52.42,1.74.42,3.53v22.01h-.14l-22.53-27.81c-.85.05-1.7.14-2.54.14-1.7,0-3.58-.09-5.66-.14v1.41l2.07.14c1.13.09,1.7.24,1.98.71.33.52.42,1.74.42,3.53v21.16h0Z"/><path class="cls-3" d="m244.36,35.36c11.15,0,19.7-8.11,19.7-18.24s-7.74-16.12-18.63-16.12c-11.81,0-19.14,7.49-19.14,17.2,0,10.56,7.74,17.16,18.07,17.16h0Zm.25-32.38c9.47,0,14,6.27,14,15.6,0,8.67-4.12,14.8-12.62,14.8-10.08,0-14.25-8.67-14.25-16.92,0-7.73,4.02-13.48,12.88-13.48h0Z"/><path class="cls-3" d="m160.78,7.6c0-1.79.09-3.02.42-3.53.28-.47.85-.66,1.98-.71l2.26-.14v-1.41c-2.45.09-4.67.14-6.83.14-2.31,0-4.52-.05-6.98-.14v1.41l2.26.14c1.13.05,1.7.24,1.98.71.33.52.42,1.74.42,3.53v21.16c0,1.79-.09,3.02-.42,3.54-.28.47-.85.66-1.98.71l-2.26.14v1.41c2.45-.09,4.67-.14,6.98-.14,2.17,0,4.38.05,6.83.14v-1.41l-2.26-.14c-1.13-.05-1.7-.24-1.98-.71-.33-.52-.42-1.74-.42-3.54V7.6h0Zm10.21,22.34c0,1.27-.38,2.36-1.18,2.78l-1.46.75v1.08c2.22-.05,4.29-.14,6.41-.14s4.19.09,6.08.14c4.19.09,7.21-.47,10.09-1.65,5.7-2.36,10.13-9,10.13-16.73,0-9.14-7.21-14.61-16.87-14.37-2.07.05-5.09.14-8.2.14s-6.13-.09-9.29-.14v1.41l1.89.14c1.13.09,1.7.24,1.98.71.33.52.42,1.74.42,3.53v22.34h0Zm4.48-25.87c1.32-.33,3.77-.38,5.37-.38,8.48,0,15.18,2.12,15.18,13.81,0,6.36-2.31,11.22-7.49,13.62-2.59,1.23-5.33,1.37-7.68,1.37-1.6,0-4.05-.05-5.37-.38V4.06h0Zm46.93,5.56c0-2.22.19-4.24.66-6.65-1.93-.75-4.76-1.98-8.53-1.98-5.66,0-12.07,3.35-12.07,10.65,0,4.9,2.92,7.21,10.32,8.06,4.81.57,8.3,1.84,8.3,6.32s-4.19,7.26-8.44,7.26c-3.72,0-7.45-1.79-7.68-3.77l-.38-3.16h-1.51c.05,2.22.05,4.76-.33,7.21,1.56.75,4.76,1.79,8.06,1.79,7.02,0,14.23-3.86,14.23-11.92,0-5.37-4.19-7.02-10.84-7.73-5.89-.66-7.78-2.64-7.78-5.84,0-4.67,3.68-6.88,6.98-6.88,1.84,0,3.82.33,5.14,1.13,1.74,1.08,1.93,1.56,2.07,2.83l.28,2.69h1.51Z"/></svg>