<svg width="415" height="100" viewBox="0 0 415 100" fill="none" xmlns="http://www.w3.org/2000/svg">
<path d="M25.573 1.43739H0L5.74153 6.92034V48.156L0 53.6336H25.573C43.8425 53.6336 56.0538 43.9237 56.0538 27.5382C56.0538 11.1526 43.8425 1.43739 25.573 1.43739ZM26.0955 47.8921H20.354V7.17892H26.0955C36.064 7.17892 40.3966 11.5642 40.3966 27.5329C40.3966 43.5015 36.064 47.8868 26.0955 47.8868V47.8921Z" fill="white"/>
<path d="M293.283 37.818C293.283 30.3562 288.845 24.6146 277.309 21.1159L269.008 18.6092C263.578 16.9891 262.116 15.1632 262.116 12.398C262.116 9.00482 264.359 6.49817 271.092 6.49817C274.169 6.49817 277.045 6.91507 280.76 8.08659L290.459 19.3427V3.26856C282.628 1.44267 276.734 0.656372 272.507 0.656372C257.841 0.656372 250.638 8.38212 250.638 17.253C250.638 24.5618 255.282 30.2506 266.09 33.5383L273.968 35.9394C279.604 37.6597 281.536 39.5912 281.536 42.3089C281.536 46.3301 277.778 48.5729 270.417 48.5729C267.287 48.5729 264.274 47.9502 261.203 46.7628L249.905 33.8021V51.3381C257.366 53.164 263.994 54.4199 269.636 54.4199C285.14 54.4199 293.277 46.5887 293.277 37.8233L293.283 37.818Z" fill="white"/>
<path d="M125.527 53.6336H130.641L150.631 6.92034L154.81 1.43739H137.586L143.85 6.92034L132.625 34.0449L121.406 6.92034L127.67 1.43739H99.7961L105.538 6.92034L125.527 53.6336Z" fill="white"/>
<path d="M187.692 53.6336H213.265C231.535 53.6336 243.746 43.9237 243.746 27.5382C243.746 11.1526 231.535 1.43739 213.265 1.43739H187.692L193.434 6.92034V48.156L187.692 53.6389V53.6336ZM208.046 7.17892H213.788C223.756 7.17892 228.089 11.5642 228.089 27.5329C228.089 43.5015 223.756 47.8868 213.788 47.8868H208.046V7.17892Z" fill="white"/>
<path d="M155.855 53.6336H181.951L176.209 48.156V6.92034L181.951 1.43739H155.855L161.597 6.92034V48.156L155.855 53.6336Z" fill="white"/>
<path d="M85.4423 53.6336H113.316L107.575 48.1507L87.5848 1.43739H71.7164L75.3101 9.80167L58.8771 48.1507L53.1356 53.6336H71.9275L65.6635 48.1507L68.3918 41.7284H89.0202L91.7115 48.1507L85.4475 53.6336H85.4423ZM70.7824 36.0977L78.772 17.2952L86.6507 36.0977H70.7824Z" fill="white"/>
<path d="M304.011 69.006V95.4656L300.111 99.2018H331.32V86.3731L323.721 95.1279H313.853V84.1039H318.666L323.827 88.3784V75.7554L318.666 80.0299H313.853V69.3437H324.302L331.32 77.4178V65.275H300.111L304.011 69.006Z" fill="white"/>
<path d="M286.269 85.5287V94.9009C285.288 95.1384 284.333 95.2703 283.451 95.2703C277.108 95.2703 272.322 91.2017 272.322 81.3598C272.322 73.8979 275.984 68.911 281.889 68.911C283.467 68.911 285.372 69.2171 287.552 69.882L294.269 77.5972V66.6365C289.045 65.312 284.839 64.7684 280.871 64.7684C270.422 64.7684 261.804 72.4361 261.804 82.2411C261.804 93.0276 269.979 99.7137 279.14 99.7137C284.021 99.7137 287.694 98.806 291.52 96.273L295.394 99.5448H295.425V85.534L299.325 81.9719H282.364L286.264 85.534L286.269 85.5287Z" fill="white"/>
<path d="M327.415 0.656372C312.017 0.656372 299.177 10.9363 299.177 27.5382C299.177 44.1401 312.017 54.4199 327.415 54.4199C342.814 54.4199 355.653 44.1401 355.653 27.5382C355.653 10.9363 342.814 0.656372 327.415 0.656372ZM327.415 48.5201C319.536 48.5201 314.834 44.1348 314.834 27.5382C314.834 10.9415 319.531 6.55622 327.415 6.55622C335.299 6.55622 339.996 10.9415 339.996 27.5382C339.996 44.1348 335.299 48.5201 327.415 48.5201Z" fill="white"/>
<path d="M395.427 1.43739L402.472 9.0101V29.7387L376.113 1.43739H356.017L364.371 10.398V46.0662L358.63 53.6336H378.202L371.157 46.0662V17.6804L404.662 53.6336H409.258V9.0101L415 1.43739H395.427Z" fill="white"/>
<path d="M107.918 93.0909C101.2 93.0909 96.7565 88.4417 96.7565 80.336C96.7565 72.8741 100.656 68.9004 106.424 68.9004C107.743 68.9004 109.411 69.1907 111.395 69.8187L118.161 77.5866V66.626C112.868 65.3014 108.625 64.7579 105.168 64.7579C94.8884 64.7579 86.2391 72.4256 86.2391 82.468C86.2391 93.2228 94.5876 99.7031 103.812 99.7031C111.923 99.7031 118.298 94.5104 119.928 86.9483C116.841 90.6476 112.667 93.0909 107.918 93.0909Z" fill="white"/>
<path d="M140.895 64.7632C130.82 64.7632 122.034 71.4493 122.034 82.2358C122.034 93.0223 130.82 99.7084 140.895 99.7084C150.969 99.7084 159.755 93.0223 159.755 82.2358C159.755 71.4493 150.969 64.7632 140.895 64.7632ZM140.895 95.5342C135.77 95.5342 132.546 92.6845 132.546 82.2358C132.546 71.787 135.77 68.9374 140.895 68.9374C146.019 68.9374 149.243 71.787 149.243 82.2358C149.243 92.6845 146.019 95.5342 140.895 95.5342Z" fill="white"/>
<path d="M174.246 95.1279V69.006L178.146 65.275H160.504L164.404 69.006V95.4656L160.504 99.2018H190.526V86.3731L182.927 95.1279H174.246Z" fill="white"/>
<path d="M207.154 95.1279V69.006L211.054 65.275H193.413L197.312 69.006V95.4656L193.413 99.2018H223.434V86.3731L215.835 95.1279H207.154Z" fill="white"/>
<path d="M230.221 69.006V95.4656L226.321 99.2018H257.535V86.3731L249.931 95.1279H240.063V84.1039H244.881L250.036 88.3784V75.7554L244.881 80.0299H240.063V69.3437H250.511L257.535 77.4178V65.275H226.321L230.221 69.006Z" fill="white"/>
</svg>
