<?xml version="1.0" encoding="UTF-8"?><svg id="Notes" xmlns="http://www.w3.org/2000/svg" viewBox="0 0 337 100"><defs><style>.cls-1{fill:#ed1c24;}</style></defs><path class="cls-1" d="m54.67,65.61c-3.99,4.26-8.51,6.39-13.36,6.39-8.51,0-14.98-5.17-14.98-13.88,0-8.19,5.52-14.14,12.83-14.14,1.83,0,3.94.4,6.47,1.34l7.49,7.69h.02v-9.69c-6.07-1.01-12.07-1.62-14.93-1.62-11.57,0-19.74,8.61-19.74,18.33,0,10.79,8.7,17.81,19.69,17.81,8.67,0,14.46-4.54,16.54-12.22l-.02-.02Z"/><path class="cls-1" d="m14.26,63.88v-30.19h6.57c7.43,0,12.21,4.35,12.21,15.1s-4.78,15.1-12.21,15.1h-6.57Zm27.62-15.1c0-11.02-8.87-17.55-21.65-17.55H1v.02l4.66,3.91v27.24l-4.66,3.91v.02h19.24c12.78,0,21.65-6.53,21.65-17.55Z"/><path d="m75.53,31.23h-5.41l1.21,1.14v8.55l-1.21,1.14h5.41c3.87,0,6.45-2.01,6.45-5.41s-2.58-5.41-6.45-5.41Zm.11,9.63h-1.21v-8.44h1.21c2.11,0,3.03.91,3.03,4.22s-.92,4.22-3.03,4.22h0Z"/><path d="m132.18,38.77c0-1.55-.94-2.74-3.38-3.46l-1.76-.52c-1.15-.34-1.46-.71-1.46-1.29,0-.7.47-1.22,1.9-1.22.65,0,1.26.09,2.05.33l2.05,2.33v-3.33c-1.66-.38-2.9-.54-3.8-.54-3.1,0-4.63,1.6-4.63,3.44,0,1.51.98,2.69,3.27,3.38l1.67.5c1.19.36,1.6.76,1.6,1.32,0,.83-.8,1.3-2.35,1.3-.66,0-1.3-.13-1.95-.38l-2.39-2.69v3.63c1.58.38,2.98.64,4.18.64,3.28,0,5-1.62,5-3.44h0Z"/><path d="m96.68,42.05h1.08l4.23-9.68.88-1.14h-3.64l1.33,1.14-2.38,5.62-2.37-5.62,1.33-1.14h-5.9l1.22,1.14,4.23,9.68Z"/><path d="m109.84,42.05h5.41c3.87,0,6.45-2.01,6.45-5.41s-2.58-5.41-6.45-5.41h-5.41l1.22,1.14v8.55l-1.22,1.14h0Zm4.31-9.63h1.22c2.11,0,3.03.91,3.03,4.22s-.92,4.22-3.03,4.22h-1.22v-8.44Z"/><path d="m103.1,42.05h5.52l-1.22-1.14v-8.55l1.22-1.14h-5.52l1.22,1.14v8.55l-1.22,1.14Z"/><path d="m88.2,42.05h5.9l-1.21-1.14-4.23-9.68h-3.36l.76,1.73-3.48,7.95-1.21,1.14h3.98l-1.33-1.14.58-1.33h4.37l.57,1.33-1.33,1.14h0Zm-3.1-3.63l1.69-3.9,1.67,3.9h-3.36Z"/><path d="m139.4,31.06c-3.26,0-5.98,2.13-5.98,5.57s2.72,5.57,5.98,5.57,5.98-2.13,5.98-5.57-2.72-5.57-5.98-5.57Zm0,9.92c-1.67,0-2.66-.91-2.66-4.35s.99-4.35,2.66-4.35,2.66.91,2.66,4.35-.99,4.35-2.66,4.35Z"/><path d="m153.8,31.23l1.49,1.57v4.3l-5.58-5.87h-4.25l1.77,1.86v7.39l-1.21,1.57h4.14l-1.49-1.57v-5.88l7.09,7.45h.97v-9.25l1.22-1.57h-4.14Z"/><path d="m69.05,53.79v-5.57l1.38.73h13.73l1.38-.73v5.57l-2.64-3.74h-4.38v15.11h2.9v1.1h-8.25v-1.1h2.9v-15.11h-4.38l-2.64,3.74Z"/><path d="m89.35,66.51c-3.05,0-5.36-2.43-5.36-5.77,0-3.14,2.49-6.02,5.51-6.02,2.82,0,4.51,2.16,4.51,4.72h-8.2c-.03.15-.03.3-.03.48,0,2.76,2,4.62,4.36,4.62,1.54,0,2.74-.48,3.72-1.76-.44,2.51-2.31,3.74-4.51,3.74Zm-3.38-8.01h5.69c0-1.56-1.02-2.56-2.54-2.56-1.41,0-2.69.9-3.15,2.56Z"/><path d="m101.37,55.7c-2.25,0-4.23,1.88-4.23,4.57s1.77,4.34,4.13,4.34c1.43,0,2.66-.7,3.38-1.71-.26,2.03-2,3.61-4.36,3.61-2.87,0-5.2-2.28-5.2-5.47,0-3.59,2.97-6.32,6.33-6.32,1.92,0,3.05.85,3.05,1.96,0,.83-.79,1.48-1.69,1.48l-1.41-2.46Z"/><path d="m104.57,48.39l4.77-1.71v9.94h.59c.9-.85,2.08-1.91,3.79-1.91,2.1,0,3.07,1.51,3.07,3.69v6.85h1.84v1h-5.94v-1h1.84v-6.22c0-1.68-.92-2.56-2.51-2.56-1.05,0-2.02.7-2.69,1.33v7.45h1.84v1h-5.94v-1h1.84v-15.71l-2.51-1.15Z"/><path d="m119.16,56.17l4.51-1.71v2.16h.59c.9-.85,2.08-1.91,3.79-1.91,2.1,0,3.07,1.51,3.07,3.69v6.85h1.84v1h-5.94v-1h1.84v-6.22c0-1.68-.92-2.56-2.51-2.56-1.05,0-2.02.7-2.69,1.33v7.45h1.84v1h-5.94v-1h1.84v-7.68l-2.25-1.41Z"/><path d="m139.34,54.72c3.15,0,6.05,2.43,6.05,5.9s-2.9,5.9-6.05,5.9-6.05-2.43-6.05-5.9,2.9-5.9,6.05-5.9Zm0,10.82c1.87,0,3.56-2.06,3.56-4.92s-1.69-4.92-3.56-4.92-3.56,2.11-3.56,4.92,1.69,4.92,3.56,4.92Z"/><path d="m147.69,49.55l-2.51-1.15,4.77-1.71v18.57h1.84v1h-5.94v-1h1.84v-15.71Z"/><path d="m158.29,54.72c3.15,0,6.05,2.43,6.05,5.9s-2.9,5.9-6.05,5.9-6.05-2.43-6.05-5.9,2.9-5.9,6.05-5.9Zm0,10.82c1.87,0,3.56-2.06,3.56-4.92s-1.69-4.92-3.56-4.92-3.56,2.11-3.56,4.92,1.69,4.92,3.56,4.92Z"/><path d="m173.46,65.16c2.41,0,4.02.95,4.02,2.89,0,3.21-3.95,5.5-7.87,5.5-2.77,0-5.1-1.05-5.1-2.99,0-1.53,1.72-2.61,3.15-3.24v-.45c-.77-.28-1.51-.9-1.51-1.96s.69-1.93,1.69-2.71c-1.28-.7-2.18-1.93-2.18-3.41,0-2.33,2.28-4.07,4.79-4.07,1.28,0,2.51.45,3.41,1.2l3.56-1.53v2.28h-2.87c.44.6.69,1.33.69,2.11,0,2.36-2.28,4.07-4.79,4.07-.82,0-1.61-.18-2.31-.5v2.81h5.3Zm-4.54,2.01c-1.08.45-2.15,1.31-2.15,2.74s1.41,2.48,4.02,2.48c2.43,0,4.74-1.33,4.74-3.34,0-1.41-1.26-1.88-3.1-1.88h-3.51Zm1.54-5.25c1.41,0,2.43-1.38,2.43-3.14s-1.02-3.14-2.43-3.14-2.43,1.38-2.43,3.14,1.02,3.14,2.43,3.14Z"/><path d="m185.87,55.97v-1h4.54v1h-1.18l-6.43,15.41c-.49,1.15-1.13,2.16-2.51,2.16-1.05,0-1.67-.75-1.67-1.53,0-.43.18-.85.56-1.2l2.33.83,1.92-4.64-4.2-11.02h-1.18v-1h5.71v1h-2.05l2.95,8.43,3.33-8.43h-2.13Z"/><path d="m211.59,66.26l-3.23-3.11c-1.87,2.03-3.87,3.36-6.2,3.36-2.82,0-5.43-1.88-5.43-4.92,0-2.69,2.13-4.24,4.02-5.3v-.55c-.87-.93-1.49-1.88-1.49-3.16,0-2.01,1.67-3.89,4.05-3.89,1.97,0,3.77,1.38,3.77,3.24,0,1.58-1.26,2.74-3.02,3.34v.55l4.95,4.77c1.15-1.51,2.2-3.26,3.23-4.94v-.5h-2.54v-1.13h6.61v1.13h-2.38c-1.36,2.23-2.72,4.39-4.1,6.22l5.07,4.89h-3.31Zm-8.56-1.81c1.69,0,3.15-.85,4.48-2.16l-5.05-4.87c-.31-.3-.59-.58-.9-.85-1.41.83-2.69,2.08-2.69,4.14,0,2.41,1.97,3.74,4.15,3.74Zm.26-9.39c1.36-.6,1.97-1.91,1.97-3.14,0-1.13-.77-2.28-2.08-2.28-1.08,0-2.02.7-2.02,2.03,0,1.25,1,2.33,2.13,3.39Z"/><path d="m230.06,48.94v1.1h-2.64v15.11h2.64v1.1h-7.74v-1.1h2.64v-15.11h-2.64v-1.1h7.74Z"/><path d="m230.9,56.17l4.51-1.71v2.16h.59c.9-.85,2.08-1.91,3.79-1.91,2.1,0,3.07,1.51,3.07,3.69v6.85h1.84v1h-5.94v-1h1.84v-6.22c0-1.68-.92-2.56-2.51-2.56-1.05,0-2.02.7-2.69,1.33v7.45h1.84v1h-5.94v-1h1.84v-7.68l-2.25-1.41Z"/><path d="m245.22,56.17l4.51-1.71v2.16h.59c.9-.85,2.08-1.91,3.79-1.91,2.1,0,3.07,1.51,3.07,3.69v6.85h1.84v1h-5.94v-1h1.84v-6.22c0-1.68-.92-2.56-2.51-2.56-1.05,0-2.02.7-2.69,1.33v7.45h1.84v1h-5.94v-1h1.84v-7.68l-2.25-1.41Z"/><path d="m265.41,54.72c3.15,0,6.05,2.43,6.05,5.9s-2.9,5.9-6.05,5.9-6.05-2.43-6.05-5.9,2.9-5.9,6.05-5.9Zm0,10.82c1.87,0,3.56-2.06,3.56-4.92s-1.69-4.92-3.56-4.92-3.56,2.11-3.56,4.92,1.69,4.92,3.56,4.92Z"/><path d="m279.13,55.97v-1h4.54v1h-1.18l-4.97,11.04-5.02-11.04h-1.18v-1h5.71v1h-2.05l3.07,7.43,3.2-7.43h-2.13Z"/><path d="m286.37,56.35v2.31h-2.79c.9-2.16,3.46-3.94,5.74-3.94,1.41,0,2.59.98,2.59,2.84v5.8c0,.98.49,1.41,1.2,1.41.49,0,.95-.18,1.31-.58,0,1.36-1.18,2.28-2.46,2.28-1.18,0-1.84-.68-2.13-1.53h-.46c-.67.6-1.77,1.51-3.18,1.51-1.23,0-2.43-.88-2.43-2.33,0-1.63,1.56-2.56,3.13-3.16l2.92-1.13v-1.51c0-1.33-.72-2.71-3.43-1.96Zm1.97,4.87c-1.54.63-2.36,1.15-2.36,2.31,0,.88.69,1.36,1.61,1.36.87,0,1.59-.38,2.2-.95v-3.31l-1.46.6Z"/><path d="m298.02,52.56v2.74h4.43l-.77,1.25h-3.66v5.92c0,1.68.97,2.36,2.15,2.36.97,0,1.79-.33,2.61-1.1-.61,1.83-2.02,2.79-3.79,2.79s-3.13-1.05-3.13-3.09l.1-6.53-2.2-.83,4.25-3.51Z"/><path d="m305.33,57.58l-2.25-1.41,4.51-1.71v10.79h1.84v1h-5.94v-1h1.84v-7.68Zm-.67-7.5c0-.83.69-1.51,1.56-1.51s1.56.68,1.56,1.51-.69,1.51-1.56,1.51-1.56-.68-1.56-1.51Z"/><path d="m315.91,54.72c3.15,0,6.05,2.43,6.05,5.9s-2.9,5.9-6.05,5.9-6.05-2.43-6.05-5.9,2.9-5.9,6.05-5.9Zm0,10.82c1.87,0,3.56-2.06,3.56-4.92s-1.69-4.92-3.56-4.92-3.56,2.11-3.56,4.92,1.69,4.92,3.56,4.92Z"/><path d="m322.19,56.17l4.51-1.71v2.16h.59c.9-.85,2.08-1.91,3.79-1.91,2.1,0,3.07,1.51,3.07,3.69v6.85h1.84v1h-5.94v-1h1.84v-6.22c0-1.68-.92-2.56-2.51-2.56-1.05,0-2.02.7-2.69,1.33v7.45h1.84v1h-5.94v-1h1.84v-7.68l-2.25-1.41Z"/></svg>